<svg width="9" height="7" viewBox="0 0 9 7" fill="none" xmlns="http://www.w3.org/2000/svg">
<path d="M7.28445 0.659332C7.27777 0.665805 7.27151 0.672694 7.2657 0.679958L4.00976 4.82839L2.04757 2.86527C1.91428 2.74107 1.73799 2.67345 1.55583 2.67667C1.37368 2.67988 1.19988 2.75367 1.07105 2.8825C0.942228 3.01132 0.868436 3.18512 0.865222 3.36728C0.862008 3.54944 0.929623 3.72573 1.05382 3.85902L3.53445 6.34058C3.60127 6.40729 3.68085 6.45985 3.76843 6.49513C3.85601 6.53042 3.9498 6.5477 4.04421 6.54595C4.13861 6.5442 4.2317 6.52345 4.31791 6.48495C4.40413 6.44644 4.4817 6.39097 4.54601 6.32183L8.28851 1.64371C8.41595 1.50996 8.48562 1.33142 8.48247 1.14671C8.47932 0.961995 8.4036 0.785941 8.27169 0.656609C8.13977 0.527277 7.96225 0.455059 7.77751 0.455569C7.59277 0.456079 7.41565 0.529275 7.28445 0.659332Z" fill="#333333"/>
</svg>
